<svg xmlns="http://www.w3.org/2000/svg" viewBox="0 0 177.35 177.37"><defs><style>.cls-1{fill:#fff;}</style></defs><g id="Calque_2" data-name="Calque 2"><g id="Calque_1-2" data-name="Calque 1"><g id="Calque_2-2" data-name="Calque 2"><g id="Calque_1-2-2" data-name="Calque 1-2"><path class="cls-1" d="M1,53.5C4,31.75,8.55,23.36,14.14,17.22A43.67,43.67,0,0,1,26.43,7.86c7.68-4,16-5.35,24.45-6.32C73.09-1,95.37.29,117.58.63,129,.81,141,1.75,151.44,7.52,167.19,16.18,175,30,176.28,47.63c1.73,23.44.87,46.92.72,70.38a99.94,99.94,0,0,1-1.64,19.83c-4.59,22-21.4,36.36-43.92,38.26-23.12,2-46.25,1.1-69.35,1-11.74,0-23.61-.81-34.54-6.27-12-6-19.64-15.66-23.24-28.41a101,101,0,0,1-3.83-28.5C.68,67.3-1,68.6,1,53.5Zm88.35-8.4c-23.09-.29-43.29,19.5-44,42.19-.82,25.52,19.87,44.54,41.45,45.59,24.85,1.22,45.44-18.1,46.22-41.75.87-25.59-18.64-45.7-43.64-46Zm46.05,8.76c5.59-.07,10.83-5.34,10.88-10.94A11.22,11.22,0,0,0,135.53,32c-5.89-.07-11.29,5.29-11.13,11.06s5.49,10.85,11,10.79Z"/><path class="cls-1" d="M89.45,115.58c-14.61.13-26.92-11.93-27-26.41S74.64,62.5,89.17,62.46a26.56,26.56,0,0,1,.28,53.12Z"/></g></g></g></g></svg>