<svg xmlns="http://www.w3.org/2000/svg" viewBox="0 0 182.01 150.64"><defs><style>.cls-1{fill:#fff;}</style></defs><g id="Calque_2" data-name="Calque 2"><g id="Calque_1-2" data-name="Calque 1"><g id="Calque_2-2" data-name="Calque 2"><g id="Calque_1-2-2" data-name="Calque 1-2"><path class="cls-1" d="M0,134.14c7.6-.17,15-.06,22.26-1.64a81.54,81.54,0,0,0,26.53-11c1.1-.69,2.72-1.28,2.29-2.84s-2.13-1.17-3.39-1.4c-12.71-2.35-21.6-9.7-27.41-21-1.47-3-2.09-5,2.72-4.29,2.57.35,6.89,1.61,7.68-1,.7-2.3-3.84-2.65-6-3.94C13.35,80.19,6.87,70.35,5.37,57.2c-.35-3-.07-4.07,3.29-2.5a24.67,24.67,0,0,0,11.6,2.57C5.2,42.69,1.48,26.43,10.59,6.69c4.49,4.7,8.18,9.1,12.41,12.9,17.1,15.38,37.29,24,60.05,26.8,3.67.46,5.57.48,5.21-4.62-1.2-17,5.57-30.33,21.28-37.75,14.91-7,29.17-4.74,41.85,5.78,2.1,1.74,3.82,2.19,6.27,1.5a92.8,92.8,0,0,0,19.76-8c-1.86,7.7-6.09,12.89-11.36,17.44-.82.71-2.95.81-2,2.46,1,1.82,2.36.36,3.76-.15,4.28-1.54,8.71-2.69,14.19-4.33-3.83,7.36-9.16,12-14.54,16.42-2.68,2.2-3.28,4.39-3.39,7.57-1.48,42.79-20.27,75.43-57.9,96.36-13.06,7.26-27.52,10.32-42.57,11.29A108.28,108.28,0,0,1,2.77,136.73a20,20,0,0,1-2.11-1.31C.44,135.26.38,134.9,0,134.14Z"/></g></g></g></g></svg>